<?xml version="1.0" encoding="utf-8" ?>
<svg baseProfile="tiny" height="20" version="1.2" width="200" xmlns="http://www.w3.org/2000/svg" xmlns:ev="http://www.w3.org/2001/xml-events" xmlns:xlink="http://www.w3.org/1999/xlink"><defs /><path d="M 141.4,0.0 L 140.1,0.6 L 125.9,0.6 L 124.6,1.2 L 113.8,1.2 L 112.5,1.7 L 101.7,1.7 L 100.3,2.3 L 94.3,2.3 L 92.9,2.9 L 90.9,2.9 L 90.2,3.2 L 80.1,3.2 L 78.8,3.8 L 72.1,3.8 L 70.7,4.3 L 29.6,4.3 L 29.0,4.1 L 29.0,3.8 L 19.5,3.8 L 18.9,3.5 L 18.9,3.2 L 16.2,3.2 L 15.5,2.9 L 14.1,2.9 L 12.8,2.3 L 11.4,2.3 L 10.8,2.0 L 10.8,1.7 L 8.8,1.7 L 8.1,1.4 L 8.1,1.2 L 6.1,1.2 L 5.4,0.9 L 5.4,0.6 L 2.7,0.6 L 0.0,1.7 L 0.7,1.7 L 2.0,2.3 L 3.4,2.3 L 4.0,2.6 L 4.0,2.9 L 6.1,2.9 L 6.7,3.2 L 6.7,3.8 L 8.8,3.8 L 9.4,4.1 L 9.4,4.3 L 11.4,4.3 L 12.1,4.6 L 14.8,4.6 L 15.5,4.9 L 20.2,4.9 L 20.9,5.2 L 24.2,5.2 L 24.9,5.5 L 68.7,5.5 L 69.4,5.2 L 74.1,5.2 L 74.7,4.9 L 78.1,4.9 L 78.8,4.6 L 81.5,4.6 L 82.2,4.3 L 88.2,4.3 L 88.9,4.1 L 92.3,4.1 L 92.9,3.8 L 94.3,3.8 L 94.9,3.5 L 99.7,3.5 L 101.0,2.9 L 111.1,2.9 L 111.8,2.6 L 115.8,2.6 L 116.5,2.3 L 123.2,2.3 L 123.9,2.0 L 130.0,2.0 L 130.6,1.7 L 138.7,1.7 L 139.4,1.4 L 144.1,1.4 L 144.8,1.2 L 174.4,1.2 L 175.1,1.4 L 175.8,1.4 L 176.4,1.7 L 178.5,1.7 L 179.1,2.0 L 180.5,2.0 L 181.1,2.3 L 182.5,2.3 L 183.2,2.6 L 184.5,2.6 L 185.9,3.2 L 188.6,3.2 L 189.2,3.5 L 188.6,3.8 L 187.9,3.8 L 186.5,4.3 L 172.4,4.3 L 171.0,4.9 L 161.6,4.9 L 160.3,5.5 L 149.5,5.5 L 148.1,6.1 L 146.8,6.1 L 146.1,6.4 L 139.4,6.4 L 138.0,7.0 L 132.7,7.0 L 131.3,7.5 L 122.6,7.5 L 121.2,8.1 L 117.2,8.1 L 115.8,8.7 L 108.4,8.7 L 107.1,9.3 L 103.7,9.3 L 102.4,9.9 L 101.7,9.9 L 101.0,10.1 L 98.3,10.1 L 97.0,10.7 L 95.6,10.7 L 94.3,11.3 L 92.3,11.3 L 90.9,11.9 L 89.6,11.9 L 88.2,12.5 L 86.9,12.5 L 84.8,13.3 L 84.2,13.3 L 82.8,13.9 L 81.5,13.9 L 80.1,14.5 L 78.8,14.5 L 77.4,15.1 L 76.8,15.1 L 75.4,15.7 L 74.1,15.7 L 72.7,16.2 L 70.7,16.2 L 68.7,17.1 L 66.0,17.1 L 62.6,18.6 L 62.6,18.8 L 66.7,18.8 L 68.0,18.3 L 83.5,18.3 L 84.2,18.0 L 91.6,18.0 L 92.9,17.4 L 108.4,17.4 L 109.1,17.7 L 109.8,17.7 L 110.4,18.0 L 110.4,18.3 L 114.5,18.3 L 115.2,18.6 L 117.8,18.6 L 118.5,18.8 L 119.2,18.8 L 119.9,19.1 L 120.5,19.1 L 121.2,19.4 L 122.6,19.4 L 123.9,20.0 L 126.6,20.0 L 128.6,19.1 L 128.6,18.8 L 127.9,18.6 L 127.9,18.3 L 125.3,18.3 L 124.6,18.0 L 124.6,17.7 L 122.6,17.7 L 121.9,17.4 L 121.9,17.1 L 117.2,17.1 L 116.5,16.8 L 115.2,16.8 L 114.5,16.5 L 114.5,16.2 L 94.3,16.2 L 92.9,16.8 L 81.5,16.8 L 80.8,17.1 L 74.7,17.1 L 74.1,16.8 L 74.7,16.5 L 76.1,16.5 L 77.4,15.9 L 78.1,15.9 L 79.5,15.4 L 80.8,15.4 L 82.2,14.8 L 83.5,14.8 L 85.5,13.9 L 86.9,13.9 L 88.2,13.3 L 89.6,13.3 L 90.9,12.8 L 92.9,12.8 L 94.3,12.2 L 94.9,12.2 L 96.3,11.6 L 99.0,11.6 L 99.7,11.3 L 100.3,11.3 L 101.7,10.7 L 104.4,10.7 L 105.1,10.4 L 106.4,10.4 L 107.1,10.1 L 110.4,10.1 L 111.1,9.9 L 113.8,9.9 L 114.5,9.6 L 117.2,9.6 L 117.8,9.3 L 119.2,9.3 L 119.9,9.0 L 122.6,9.0 L 123.2,8.7 L 130.0,8.7 L 130.6,8.4 L 135.4,8.4 L 136.0,8.1 L 136.7,8.1 L 137.4,7.8 L 141.4,7.8 L 142.1,7.5 L 146.1,7.5 L 147.5,7.0 L 154.9,7.0 L 155.6,6.7 L 158.9,6.7 L 159.6,6.4 L 161.6,6.4 L 162.3,6.1 L 170.4,6.1 L 171.0,5.8 L 175.8,5.8 L 176.4,5.5 L 185.9,5.5 L 186.5,5.2 L 192.6,5.2 L 193.3,4.9 L 196.6,4.9 L 200.0,3.5 L 200.0,3.2 L 198.7,3.2 L 198.0,2.9 L 196.6,2.9 L 195.3,2.3 L 193.9,2.3 L 192.6,1.7 L 189.9,1.7 L 189.2,1.4 L 189.2,1.2 L 185.9,1.2 L 185.2,0.9 L 185.2,0.6 L 181.1,0.6 L 180.5,0.3 L 180.5,0.0" fill="none" stroke="#000" stroke-width="2" /></svg>